<svg width="512" height="512" viewBox="0 0 512 512" fill="none" xmlns="http://www.w3.org/2000/svg">
  <defs>
    <linearGradient id="bg" x1="80" y1="40" x2="440" y2="480" gradientUnits="userSpaceOnUse">
      <stop offset="0" stop-color="#45D6A4"/>
      <stop offset="1" stop-color="#29B985"/>
    </linearGradient>
    <filter id="tileInnerShadow" x="-10%" y="-10%" width="120%" height="120%">
      <feOffset dx="0" dy="2" />
      <feGaussianBlur stdDeviation="6" result="blur"/>
      <feComposite in="blur" in2="SourceAlpha" operator="out" result="shadow"/>
      <feColorMatrix in="shadow" type="matrix"
        values="0 0 0 0 0
                0 0 0 0 0.35
                0 0 0 0 0.25
                0 0 0 0.22 0"/>
      <feComposite in2="SourceGraphic" operator="over"/>
    </filter>
    <filter id="markShadow" x="-20%" y="-20%" width="140%" height="140%" filterUnits="objectBoundingBox">
      <feDropShadow dx="0" dy="6" stdDeviation="8" flood-color="#0A7A54" flood-opacity="0.20"/>
    </filter>
    <radialGradient id="shine" cx="0" cy="0" r="1" gradientUnits="userSpaceOnUse"
      gradientTransform="translate(150 120) rotate(35) scale(420 420)">
      <stop offset="0" stop-color="white" stop-opacity="0.18"/>
      <stop offset="1" stop-color="white" stop-opacity="0"/>
    </radialGradient>
  </defs>
  <g filter="url(#tileInnerShadow)">
    <rect width="512" height="512" rx="140" fill="url(#bg)"/>
    <rect width="512" height="512" rx="140" fill="url(#shine)"/>
  </g>
  <g transform="translate(0,-44)" filter="url(#markShadow)">
    <rect x="150" y="110" width="50" height="292" rx="25" fill="white"/>
    <path d="M200 135H270C311.42 135 345 168.58 345 210C345 251.42 311.42 285 270 285H200"
          stroke="white" stroke-width="45" stroke-linecap="round" stroke-linejoin="round"/>
    <path d="M200 285H310C359.7 285 400 325.3 400 375C400 424.7 359.7 465 310 465H200"
          stroke="#F3FFFB" stroke-width="50" stroke-linecap="round" stroke-linejoin="round"/>
    <circle cx="200" cy="285" r="18" fill="#39C692"/>
  </g>
  <g opacity="0.22">
    <circle cx="338" cy="350" r="6" fill="white"/>
    <circle cx="364" cy="378" r="6" fill="white"/>
    <circle cx="382" cy="412" r="6" fill="white"/>
  </g>
</svg>
